<svg width="129" height="22" viewBox="0 0 129 22" fill="none" xmlns="http://www.w3.org/2000/svg">
<g clip-path="url(#clip0)">
<path fill-rule="evenodd" clip-rule="evenodd" d="M32.5381 6.20684C33.2968 4.42105 36.3684 -0.00482252 42.3802 3.94432e-06C48.3988 0.00483041 53.2938 4.77917 53.2948 10.9252C53.2967 16.9448 48.3988 21.9459 42.3802 21.9479C36.3684 21.9508 33.404 17.5683 32.5497 15.8173C32.5449 18.5983 29.8806 21.8427 26.1372 21.8427L16.8511 21.8407V0.357162H26.811C29.9029 0.361024 32.5449 3.52525 32.5381 6.20684ZM22.4054 16.8376H25.3592C26.2183 16.8376 26.895 15.9891 26.895 15.0229C26.895 14.0556 26.2183 13.2071 25.3592 13.2071H22.4054V16.8376ZM22.416 8.77162H25.3698C26.2289 8.77162 26.9056 7.92216 26.9056 6.95494C26.9056 5.98868 26.2289 5.14019 25.3698 5.14019H22.416V8.77162ZM31.5033 9.57668C31.1056 10.0709 29.9781 10.8441 29.3015 10.93C29.9888 11.0159 31.0622 11.875 31.5159 12.5739C31.3527 11.961 31.3633 10.1887 31.5033 9.57668ZM36.9157 10.93C36.9157 13.9504 39.3637 16.3984 42.3841 16.3984C45.4035 16.3984 47.8525 13.9504 47.8525 10.93C47.8525 7.90962 45.4045 5.46163 42.3841 5.46163C39.3637 5.46163 36.9157 7.91058 36.9157 10.93ZM83.6243 7.9434C83.6262 7.95788 83.6243 21.4749 83.6243 21.4749C83.6243 21.6564 83.5017 21.8407 83.3231 21.8407H81.4862C80.4118 21.8427 79.5199 20.9266 79.518 19.8377V7.99167C79.4359 5.42881 77.6366 4.07451 75.429 4.07837C73.2223 4.08126 71.4259 5.49445 71.3516 8.05731V21.4913C71.3516 21.6728 71.2242 21.8398 71.0456 21.8398H69.2086C68.1342 21.8417 67.2423 20.8822 67.2404 19.7943V8.00904C67.1583 5.44619 65.359 4.09188 63.1514 4.09574C60.9447 4.09864 59.1483 5.45777 59.074 8.02062V21.5087C59.074 21.6901 58.9466 21.8398 58.768 21.8398H56.9311C55.8567 21.8417 54.9696 20.9604 54.9677 19.8715C54.9677 19.8715 54.9667 8.00325 54.9677 7.99167C55.0738 2.7897 58.6927 0.0289627 63.1466 0.023171C65.5907 0.0193098 67.7858 0.846566 69.2887 2.45281C70.7878 0.841739 72.98 0.00965687 75.4241 0.0057957C79.8732 0.000969244 83.4988 2.74819 83.6243 7.9434ZM125.945 21.5811C126.018 21.6892 125.938 21.833 125.805 21.833L122.524 21.8417C121.754 21.8436 121.004 21.75 120.339 20.8166L116.982 15.8627C116.719 15.4746 116.338 15.0151 115.797 15.0151C115.255 15.0151 114.874 15.4746 114.611 15.8627L111.254 20.8166C110.589 21.75 109.839 21.8436 109.069 21.8417H105.788C105.655 21.8417 105.575 21.6892 105.648 21.5811L112.123 12.0237C112.311 11.7447 112.403 11.4214 112.399 11.098C112.403 10.7746 112.311 10.4512 112.123 10.1723L105.648 0.614896C105.575 0.506783 105.655 0.360058 105.788 0.360058H109.069C109.839 0.358128 110.589 0.445969 111.254 1.37941L114.611 6.33329C114.874 6.72134 115.256 7.18082 115.797 7.18082C116.337 7.18082 116.719 6.72134 116.982 6.33329L120.339 1.37941C121.004 0.445969 121.754 0.358128 122.524 0.360058H125.805C125.938 0.360058 126.018 0.506783 125.945 0.614896L119.47 10.1723C119.282 10.4512 119.191 10.7746 119.194 11.098C119.191 11.4214 119.282 11.7447 119.47 12.0237L125.945 21.5811ZM103.066 0.360058H104.359C104.542 0.360058 104.69 0.506783 104.69 0.691154L104.682 21.582C104.682 21.7635 104.534 21.8427 104.351 21.8427H102.476C101.434 21.8427 100.581 21.11 100.5 20.0907C99.0651 21.2519 96.8228 22 94.5611 22C88.6535 22 84.5771 17.7981 84.5771 11.0043C84.5771 4.26467 88.5859 0.00869158 94.6093 0.00869158C96.6007 0.00869158 99.0111 0.617792 100.87 2.1835L101.348 1.34948C101.702 0.737488 102.358 0.361024 103.066 0.360058ZM88.5869 11.0034C88.5869 15.3569 91.0966 17.9062 94.5215 17.9062C97.9464 17.9062 100.456 15.3569 100.456 11.0034C100.456 6.64991 97.9464 4.10057 94.5215 4.10057C91.0966 4.10057 88.5869 6.64991 88.5869 11.0034ZM9.80255 8.35075H6.01474V0.359093H0V21.8417H6.01474V13.5064H9.80255V21.8417H15.6377V0.359093H9.80255V8.35075ZM42.3841 6.63157C40.0095 6.63157 38.0856 8.55636 38.0856 10.93C38.0856 13.3046 40.0104 15.2294 42.3841 15.2294C44.7577 15.2294 46.6825 13.3046 46.6825 10.93C46.6825 8.55636 44.7577 6.63157 42.3841 6.63157ZM126.495 0.55794H126.791V1.41126H127.032V0.55794H127.337V0.359089H126.495V0.55794ZM128.294 0.359089L128.009 0.827256L127.724 0.359089H127.484V1.41126H127.724V0.800228L127.996 1.24619H128.023L128.294 0.800228V1.41126H128.535V0.359089H128.294Z" fill="white"/>
</g>
<defs>
<clipPath id="clip0">
<rect width="129" height="22" fill="white"/>
</clipPath>
</defs>
</svg>
